
<svg width="50px" height="49px" viewBox="0 0 50 49" version="1.1" xmlns="http://www.w3.org/2000/svg" xmlns:xlink="http://www.w3.org/1999/xlink">
    <defs>
        <filter x="-2.8%" y="-3.3%" width="105.6%" height="110.9%" filterUnits="objectBoundingBox" id="filter-1">
            <feOffset dx="0" dy="3" in="SourceAlpha" result="shadowOffsetOuter1"></feOffset>
            <feGaussianBlur stdDeviation="2" in="shadowOffsetOuter1" result="shadowBlurOuter1"></feGaussianBlur>
            <feColorMatrix values="0 0 0 0 0   0 0 0 0 0   0 0 0 0 0  0 0 0 0.15 0" type="matrix" in="shadowBlurOuter1" result="shadowMatrixOuter1"></feColorMatrix>
            <feMerge>
                <feMergeNode in="shadowMatrixOuter1"></feMergeNode>
                <feMergeNode in="SourceGraphic"></feMergeNode>
            </feMerge>
        </filter>
        <linearGradient x1="100%" y1="0%" x2="0%" y2="100%" id="linearGradient-2">
            <stop stop-color="#2B59FF" offset="0%"></stop>
            <stop stop-color="#619BFF" offset="100%"></stop>
        </linearGradient>
    </defs>
    <g id="0.-styleguide" stroke="none" stroke-width="1" fill="none" fill-rule="evenodd">
        <g id="11.Icons-dark" transform="translate(-108.000000, -80.000000)" fill="url(#linearGradient-2)">
            <g id="Group-12" filter="url(#filter-1)" transform="translate(83.000000, 47.000000)">
                <g id="Group-3">
                    <g id="1" transform="translate(0.000000, 34.000000)">
                        <g id="Group-2" transform="translate(29.000000, 0.000000)">
                            <path d="M28.1862009,1.23524673 C17.3158463,-2.62043845 5.2127711,2.84861854 1.26246183,13.4859344 C-2.68784744,24.1232503 2.9434445,35.9090681 13.8137991,39.7647533 C24.6841537,43.6204385 36.7872289,38.1513815 40.7375382,27.5140656 C44.6878474,16.8767497 39.0565555,5.09093191 28.1862009,1.23524673 Z" id="Shape" fill-rule="nonzero" opacity="0.300000012"></path>
                            <path d="M26.2252453,29.0042105 C25.5508475,29.4694737 24.76405,29.7705263 23.9491525,29.9073684 C23.1342551,30.0715789 22.2912578,30.0715789 21.3920607,29.9621053 C20.7738626,29.88 20.1275647,29.7705263 19.4812667,29.5789474 L18.2167707,33 L16.1935772,32.2884211 L17.4580731,28.8673684 L15.4067797,28.1284211 L14.1422837,31.5494737 L12.1190901,30.8378947 L13.3835861,27.4168421 L9,25.8568421 L9.75869759,23.8042105 L10.4049955,23.9684211 C10.6297948,24.0505263 10.9388938,24.1052632 11.3603925,24.2147368 C11.8942908,24.3515789 12.0909902,24.3242105 12.14719,24.3515789 C12.3719893,24.3515789 12.456289,24.2968421 12.456289,24.2968421 C12.5124888,24.2421053 12.5686887,24.16 12.6248885,23.9957895 L16.8398751,12.6926316 C16.8960749,12.5284211 16.8960749,12.4189474 16.8960749,12.3094737 C16.8960749,12.2821053 16.8398751,12.2 16.6993756,12.0631579 C16.5026762,11.8715789 16.249777,11.7347368 16.0249777,11.5705263 C15.7158787,11.4063158 15.4629795,11.2968421 15.29438,11.1873684 L14.676182,10.9136842 L15.4348796,8.86105263 L19.706066,10.3663158 L20.970562,7 L22.9937556,7.71157895 L21.7854594,11.1326316 L23.8367529,11.8715789 L25.1012489,8.45052632 L27.1244425,9.16210526 L25.8318466,12.6105263 C26.2533452,12.7747368 26.646744,12.9936842 27.0120428,13.1852632 C27.6583408,13.5684211 28.220339,14.0063158 28.7542373,14.5263158 C29.2600357,15.0463158 29.6253345,15.6484211 29.8501338,16.3326316 C30.0749331,17.0442105 30.0468332,17.8105263 29.7658341,18.5768421 C29.5129349,19.2336842 29.147636,19.7810526 28.6418376,20.2189474 C28.1641392,20.6294737 27.574041,20.9305263 26.9277431,21.1221053 C26.5343443,21.2315789 26.0847458,21.3136842 25.6070473,21.3684211 C26.0847458,21.7515789 26.5062444,22.1347368 26.8715433,22.5726316 C27.3773417,23.1473684 27.7426405,23.8042105 27.9674398,24.5705263 C28.1922391,25.3368421 28.1360393,26.1852632 27.8269402,27.0336842 C27.4616414,27.8273684 26.955843,28.5115789 26.2252453,29.0042105 Z M23.3854244,25.5162639 C23.9474226,23.9244732 23.1325252,22.1651255 21.5308302,21.5786763 L18.5803396,20.5174825 L16.4728463,26.2981962 L19.4233369,27.35939 C21.0250318,27.9458392 22.7953262,27.1080546 23.3854244,25.5162639 Z M25.0152192,17.7248672 C25.4929177,16.412338 24.7904199,14.9043257 23.4697241,14.401655 L21.0531318,13.5359442 L19.2828374,18.3950949 L21.6994297,19.2608056 C23.0482254,19.7355502 24.5375207,19.0653225 25.0152192,17.7248672 Z" id="Combined-Shape"></path>
                        </g>
                    </g>
                </g>
            </g>
        </g>
    </g>
</svg>
